<?xml version="1.0" encoding="UTF-8"?>
<svg version="1.1" xmlns="http://www.w3.org/2000/svg" width="418" height="129">
<path d="M0 0 C2.05859375 1.0703125 2.05859375 1.0703125 5.05859375 3.0703125 C5.87263672 2.54630859 5.87263672 2.54630859 6.703125 2.01171875 C7.41855469 1.55667969 8.13398438 1.10164063 8.87109375 0.6328125 C9.57878906 0.18035156 10.28648437 -0.27210937 11.015625 -0.73828125 C16.96928216 -4.21029929 24.79734638 -3.70124226 31.41015625 -2.50390625 C38.78998693 -0.10766641 44.31747191 5.15981397 47.99609375 11.8828125 C51.42811391 19.57286446 51.98028136 26.62743719 49.19140625 34.6171875 C45.51507913 42.57833727 40.13973009 47.72433368 32.05859375 51.0703125 C21.7148029 54.23261542 13.25623486 50.7321306 4.05859375 46.0703125 C2.79015625 46.9984375 2.79015625 46.9984375 1.49609375 47.9453125 C-5.15278987 52.32611899 -12.53900443 53.08268763 -20.234375 51.640625 C-28.9147113 49.22029027 -34.54018939 43.47915463 -39.03125 35.8671875 C-42.09058538 29.82729791 -41.74182527 22.21485507 -40.48046875 15.68359375 C-37.7883026 7.62293158 -32.36078707 2.85900509 -24.9921875 -0.984375 C-16.75887309 -4.77954088 -8.06862669 -3.57722366 0 0 Z M-27.55078125 12.765625 C-31.28162787 17.94269867 -31.88535732 22.82974711 -30.94140625 29.0703125 C-29.18053213 34.25510852 -26.38321255 36.93491982 -21.94140625 40.0703125 C-16.975868 42.49790898 -12.22339032 42.43903533 -6.94140625 41.0703125 C-5.24438037 40.12274671 -3.56954246 39.13189164 -1.94140625 38.0703125 C-2.03679687 37.22726563 -2.1321875 36.38421875 -2.23046875 35.515625 C-2.34132813 34.41992188 -2.4521875 33.32421875 -2.56640625 32.1953125 C-2.68242187 31.10476562 -2.7984375 30.01421875 -2.91796875 28.890625 C-2.92570312 27.95992187 -2.9334375 27.02921875 -2.94140625 26.0703125 C-0.94140625 24.0703125 -0.94140625 24.0703125 1.43359375 23.8828125 C5.19084834 25.58252291 5.56264459 28.07549987 7.0390625 31.78125 C9.0440576 36.28288651 12.09152629 38.50144929 16.24609375 40.9453125 C22.4423368 42.77371209 27.62114347 42.24389967 33.43359375 39.4453125 C37.3840607 35.8710805 39.32931136 32.30677848 40.99609375 27.1953125 C41.10815989 21.59200543 39.20825003 16.89390522 36.24609375 12.1953125 C32.23662196 8.30039705 28.65021923 6.88451776 23.12109375 6.6328125 C18.07974736 6.76246891 15.15869433 8.21806862 11.05859375 11.0703125 C11.55359375 16.0203125 11.55359375 16.0203125 12.05859375 21.0703125 C9.74609375 22.1953125 9.74609375 22.1953125 7.05859375 23.0703125 C3.95600691 21.00192127 3.59490212 20.47893935 2.24609375 17.2578125 C0.20537345 12.94090418 -2.04446517 10.80646262 -5.94140625 8.0703125 C-13.77688061 5.45848771 -21.74556374 6.65042015 -27.55078125 12.765625 Z " fill="#82BB25" transform="translate(311.94140625,34.9296875)"/>
<path d="M0 0 C5.778566 4.18248954 11.34584676 8.83200261 13 16 C14.01491778 25.0444443 14.39512186 33.31113462 8.8359375 40.984375 C3.41517442 46.93568085 -3.21404556 51.49113756 -11.3984375 52.2109375 C-14.93453554 52.26815591 -17.62004874 52.12665042 -21 51 C-20.98952637 51.56509277 -20.97905273 52.13018555 -20.96826172 52.71240234 C-20.92675212 55.26655653 -20.9006904 57.82063982 -20.875 60.375 C-20.85824219 61.26445313 -20.84148437 62.15390625 -20.82421875 63.0703125 C-20.81777344 63.92109375 -20.81132812 64.771875 -20.8046875 65.6484375 C-20.79421387 66.43395996 -20.78374023 67.21948242 -20.77294922 68.02880859 C-21 70 -21 70 -23 72 C-26 72.3125 -26 72.3125 -29 72 C-31.49095696 68.26356456 -31.25791662 66.27455265 -31.265625 61.8125 C-31.26753845 61.11358643 -31.2694519 60.41467285 -31.27142334 59.69458008 C-31.27278283 58.21858357 -31.26910282 56.74257502 -31.26074219 55.26660156 C-31.25003882 53.00819016 -31.2606449 50.75057418 -31.2734375 48.4921875 C-31.27211586 47.05728991 -31.26955338 45.62239282 -31.265625 44.1875 C-31.26224121 42.22876953 -31.26224121 42.22876953 -31.25878906 40.23046875 C-31 37 -31 37 -29 34 C-26 33.6875 -26 33.6875 -23 34 C-21 36 -21 36 -21 40 C-14.49007658 41.08717031 -9.91186304 41.4775665 -4 38 C-0.12702022 34.6321915 1.78055683 32.49301832 2.23828125 27.29296875 C2.35269696 22.50557439 2.41063632 18.91982537 0.4375 14.5 C-3.97960121 9.96963978 -7.58759451 7.79289156 -13.875 7.5 C-18.54172084 7.65650588 -21.95659296 9.0419141 -25.9921875 11.3203125 C-28 12 -28 12 -30.19140625 11.26171875 C-32 10 -32 10 -33.0625 7.6875 C-33 5 -33 5 -31.0625 2.375 C-22.4310438 -4.31878236 -9.59918813 -5.77496429 0 0 Z " fill="#82BB25" transform="translate(392,35)"/>
<path d="M0 0 C2 2 2 2 2.25 4.5 C2 7 2 7 0 9 C-3.617131 9.41103761 -5.57591365 9.22617939 -8.8125 7.5 C-13.67710258 5.21077526 -18.0610641 5.12920418 -23.21484375 6.65625 C-27.49853586 8.50693263 -30.32871736 10.7043492 -32.37890625 14.94140625 C-33.9777479 20.24071159 -33.65524387 25.23084154 -31.75 30.375 C-28.50416347 35.24375479 -25.85284212 37.80775438 -20 39 C-14.05673599 39 -10.04952984 38.17399019 -5 35 C-1.5989856 35.23728007 -0.430466 35.569534 2 38 C2.1875 40.8125 2.1875 40.8125 1 44 C-5.74937433 49.11646119 -12.67978224 50.74668621 -21 50 C-29.59005988 48.07853924 -35.42663243 44.20226769 -40.703125 37.1953125 C-44.80301805 30.2551321 -44.82021804 22.83092377 -44 15 C-41.6198123 6.81879669 -36.38921514 1.21059625 -29.1640625 -3.09375 C-19.40156484 -7.54248311 -8.68527865 -5.81367536 0 0 Z " fill="#82BB25" transform="translate(272,37)"/>
<path d="M0 0 C4.47870656 2.15937638 7.18198188 4.92952939 10 9 C11 12 11 12 11 21 C2.42 21 -6.16 21 -15 21 C-12.35795434 25.99018825 -12.35795434 25.99018825 -8 28 C-3.77122353 28.35989587 -0.83150744 27.80306232 3 26 C3 25.34 3 24.68 3 24 C5.4375 24.75 5.4375 24.75 8 26 C8.8125 28.125 8.8125 28.125 9 30 C3.81577995 34.57431181 -0.90605918 36.51778566 -7.9140625 36.31640625 C-13.04134816 35.53867191 -16.90844419 33.14753303 -20.4375 29.4375 C-24.02917737 23.83448331 -23.80533978 17.43512073 -23 11 C-18.39092996 0.99305935 -10.35769524 -1.26484745 0 0 Z M-14 10 C-14.33 11.32 -14.66 12.64 -15 14 C-9.06 14 -3.12 14 3 14 C1.7115549 8.29934889 1.7115549 8.29934889 -0.75 6.625 C-6.49177635 5.03006212 -9.80015366 5.68015805 -14 10 Z " fill="#445237" transform="translate(60,51)"/>
<path d="M0 0 C2.7078702 1.71896662 4.18780311 3.52779841 5.96875 6.19921875 C6.28759766 9.11010742 6.28759766 9.11010742 6.3828125 12.6171875 C6.42148438 13.87080078 6.46015625 15.12441406 6.5 16.41601562 C6.5309375 17.72634766 6.561875 19.03667969 6.59375 20.38671875 C6.63194338 21.72203035 6.67099591 23.05731767 6.7109375 24.39257812 C6.80534153 27.66131763 6.89092017 30.93004939 6.96875 34.19921875 C3.59375 34.32421875 3.59375 34.32421875 -0.03125 34.19921875 C-0.69125 33.53921875 -1.35125 32.87921875 -2.03125 32.19921875 C-2.876875 32.69421875 -3.7225 33.18921875 -4.59375 33.69921875 C-9.60810421 35.88730059 -13.15460517 35.8849159 -18.28125 34.01171875 C-21.38243526 31.96775573 -22.60186104 30.61387015 -24.03125 27.19921875 C-24.6573927 23.99893383 -24.60658189 22.14426563 -22.89453125 19.33203125 C-19.74976487 15.3536129 -17.15963953 13.07007735 -12.03125 12.19921875 C-8.35737571 12.06202012 -4.70529997 12.08154455 -1.03125 12.19921875 C-2.14979586 8.47307722 -2.14979586 8.47307722 -5.03125 6.19921875 C-7.11363466 6.22257889 -7.11363466 6.22257889 -9.40625 6.51171875 C-10.17710937 6.59035156 -10.94796875 6.66898438 -11.7421875 6.75 C-14.12885878 7.21837406 -15.91722746 8.01671756 -18.03125 9.19921875 C-19.40687854 7.90956699 -20.73891393 6.57232582 -22.03125 5.19921875 C-22.03125 4.53921875 -22.03125 3.87921875 -22.03125 3.19921875 C-15.30653735 -0.93906595 -7.7053225 -3.03767522 0 0 Z M-16.03125 21.19921875 C-16.19812448 23.61567657 -16.19812448 23.61567657 -16.03125 26.19921875 C-13.64999088 28.58047787 -12.92417462 28.54443516 -9.65625 28.63671875 C-6.06766995 28.55581678 -5.31091336 28.43795577 -2.46875 26.01171875 C-0.96599062 23.07153734 -0.6603658 21.44445549 -1.03125 18.19921875 C-7.02118047 17.88395925 -10.66685356 18.51702053 -16.03125 21.19921875 Z " fill="#445237" transform="translate(187.03125,51.80078125)"/>
<path d="M0 0 C2.31 0 4.62 0 7 0 C7.33 0.99 7.66 1.98 8 3 C8.54914063 2.5153125 9.09828125 2.030625 9.6640625 1.53125 C13.7778728 -1.16542833 18.26301332 -0.74614385 23 0 C26.67003939 1.85635714 28.68093126 4.04279377 30 8 C30.08315752 10.06498892 30.10735878 12.1325789 30.09765625 14.19921875 C30.09443359 15.40771484 30.09121094 16.61621094 30.08789062 17.86132812 C30.07951172 19.12396484 30.07113281 20.38660156 30.0625 21.6875 C30.05798828 22.96173828 30.05347656 24.23597656 30.04882812 25.54882812 C30.03702873 28.69926564 30.02056597 31.84960949 30 35 C27.69 35 25.38 35 23 35 C22.98018066 34.42556152 22.96036133 33.85112305 22.93994141 33.25927734 C22.84407976 30.63076167 22.73465126 28.00297509 22.625 25.375 C22.5940625 24.47136719 22.563125 23.56773438 22.53125 22.63671875 C22.31706465 17.74615328 21.87645845 13.59198368 20 9 C15.1797691 7.85508815 15.1797691 7.85508815 10.625 9.25 C7.9136225 12.169945 7.84529973 15.07507768 7.68359375 18.88671875 C7.64169922 19.82451172 7.59980469 20.76230469 7.55664062 21.72851562 C7.51732422 22.70498047 7.47800781 23.68144531 7.4375 24.6875 C7.39431641 25.67556641 7.35113281 26.66363281 7.30664062 27.68164062 C7.20058346 30.12095546 7.09852286 32.56037113 7 35 C4.69 35 2.38 35 0 35 C0 23.45 0 11.9 0 0 Z " fill="#445237" transform="translate(77,51)"/>
<path d="M0 0 C2.64 0 5.28 0 8 0 C8 2.97 8 5.94 8 9 C9.299375 8.979375 10.59875 8.95875 11.9375 8.9375 C13.29165633 8.91600546 14.64756083 8.92851801 16 9 C17 10 17 10 17.125 13 C17 16 17 16 16 17 C13.69 17 11.38 17 9 17 C8.67 23.6 8.34 30.2 8 37 C12.455 36.505 12.455 36.505 17 36 C17 38.64 17 41.28 17 44 C12.41766133 45.52744622 8.58416356 45.77447996 4.1875 43.625 C2 42 2 42 0 40 C-0.31884766 37.66162109 -0.31884766 37.66162109 -0.4140625 34.7734375 C-0.45273438 33.7421875 -0.49140625 32.7109375 -0.53125 31.6484375 C-0.5621875 30.56820312 -0.593125 29.48796875 -0.625 28.375 C-0.66367188 27.28703125 -0.70234375 26.1990625 -0.7421875 25.078125 C-0.83666247 22.38558835 -0.92222431 19.69306243 -1 17 C-1.969375 17.020625 -2.93875 17.04125 -3.9375 17.0625 C-7 17 -7 17 -8 16 C-8.04092937 13.66702567 -8.04241723 11.33294775 -8 9 C-5.36 9 -2.72 9 0 9 C0 6.03 0 3.06 0 0 Z " fill="#445237" transform="translate(118,42)"/>
<path d="M0 0 C3.00354066 1.04530518 5.27104375 2.32064231 8 4 C6.47427344 7.32635882 5.06655496 8.95563002 2 11 C1.29875 10.505 0.5975 10.01 -0.125 9.5 C-3.51250333 7.73260696 -5.2335258 7.3722543 -9 8 C-12.49359772 10.56197166 -13.7868934 12.26744607 -15 16.4375 C-15 20.57869627 -14.36368768 22.61204767 -12 26 C-9.02781882 27.84757208 -7.42739787 28.03488962 -3.9375 27.75 C-1.35092645 27.08959824 0.69867376 26.32768821 3 25 C4.32 26.32 5.64 27.64 7 29 C5.9730655 32.30901116 4.96077893 33.0219638 1.875 34.75 C-2.87749929 36.53095729 -7.33142035 36.90410895 -12.14453125 35.2734375 C-17.23000473 32.95242363 -20.46111201 30.07777597 -23 25 C-23.93739328 13.01365965 -23.93739328 13.01365965 -21.3125 7.375 C-14.46188339 0.33923159 -9.70898377 -0.93215929 0 0 Z " fill="#445237" transform="translate(27,51)"/>
<path d="M0 0 C2.64 0 5.28 0 8 0 C8 17.82 8 35.64 8 54 C5.36 54 2.72 54 0 54 C0 36.18 0 18.36 0 0 Z " fill="#445237" transform="translate(200,32)"/>
<path d="M0 0 C2.64 0 5.28 0 8 0 C8.33 0.66 8.66 1.32 9 2 C9.495 1.67 9.99 1.34 10.5 1 C14.09090894 -0.43636358 17.14456127 -0.12851462 21 0 C21 2.64 21 5.28 21 8 C20.07767578 8.03867187 20.07767578 8.03867187 19.13671875 8.078125 C18.32847656 8.13484375 17.52023438 8.1915625 16.6875 8.25 C15.88699219 8.29640625 15.08648437 8.3428125 14.26171875 8.390625 C11.23523536 9.20605058 10.61157997 10.34949417 9 13 C8.50142674 15.50359737 8.50142674 15.50359737 8.48828125 18.203125 C8.45283203 19.1828125 8.41738281 20.1625 8.38085938 21.171875 C8.34702148 22.69554687 8.34702148 22.69554687 8.3125 24.25 C8.27833984 25.28125 8.24417969 26.3125 8.20898438 27.375 C8.12661907 29.91655812 8.05743166 32.45777626 8 35 C5.36 35 2.72 35 0 35 C0 23.45 0 11.9 0 0 Z " fill="#445237" transform="translate(141,51)"/>
</svg>
